<svg width="69" height="60" viewBox="0 0 69 60" fill="none" xmlns="http://www.w3.org/2000/svg">
<path d="M6.72692 24.0561L6.72696 24.0562C6.78328 24.3076 7.03273 24.9959 7.42415 25.9794C7.80776 26.9432 8.30971 28.147 8.84765 29.3988C9.92565 31.9074 11.1383 34.5861 11.8268 35.9062C12.1658 36.5559 12.432 37.0702 12.5907 37.4434C12.6689 37.6273 12.7351 37.8086 12.7645 37.9716C12.7882 38.1026 12.8228 38.4013 12.5993 38.6306C12.3739 38.8619 12.0727 38.8323 11.9406 38.8104C11.7773 38.7833 11.5955 38.7194 11.4117 38.6437C11.0386 38.4899 10.5238 38.2302 9.87383 37.8998M6.72692 24.0561L9.87383 37.8998M6.72692 24.0561C6.60948 23.5326 6.20759 22.2405 5.83667 21.1809L5.39483 21.3356M6.72692 24.0561L5.39483 21.3356M9.87383 37.8998C5.945 35.9026 2.89431 31.8226 1.56758 26.8892L2.05042 26.7593M9.87383 37.8998L2.05042 26.7593M2.05042 26.7593L1.56758 26.8892C1.34282 26.0534 1.11202 25.4494 0.90381 25.063C0.842175 24.9486 0.78616 24.8601 0.737445 24.7934C0.728066 24.8221 0.718428 24.8545 0.708761 24.8911C0.616563 25.2396 0.559251 25.8137 0.57718 26.6379C0.699469 32.2589 5.48648 38.41 12.8094 42.0223C13.0266 42.1295 13.2312 42.2257 13.424 42.3164C13.8426 42.5134 14.206 42.6844 14.5242 42.8846C15.0269 43.2009 15.4449 43.5991 15.9592 44.2959C16.7922 45.4246 17.9412 47.4301 20.1984 51.3695C20.6466 52.1517 21.1385 53.0103 21.6802 53.9533L21.2467 54.2024M2.05042 26.7593L21.2467 54.2024M5.39483 21.3356L5.83666 21.1809C5.01347 18.8296 4.71199 15.3556 4.90247 11.8603C5.09293 8.36531 5.77072 4.93209 6.84669 2.66004C7.14878 2.02222 7.45483 1.64194 7.69818 1.45094C7.8184 1.35659 7.90804 1.32028 7.9616 1.30872C8.00863 1.29858 8.02546 1.30707 8.02968 1.3092L8.02989 1.3093C8.04186 1.31532 8.16343 1.39754 8.20205 1.76711C8.23872 2.11792 8.18467 2.63717 7.96069 3.31299L7.96068 3.31302C7.40116 5.00156 7.16322 8.02746 7.19926 11.1409C7.23547 14.2679 7.54955 17.576 8.13957 19.854C8.70288 22.0289 9.26977 23.7931 9.71577 24.8367C9.82768 25.0986 9.93607 25.3248 10.0392 25.5049C10.1324 25.6677 10.2533 25.8514 10.406 25.9688C10.4839 26.0287 10.6344 26.1212 10.8361 26.108C11.0633 26.093 11.212 25.9561 11.29 25.8413C11.3616 25.7359 11.3966 25.6208 11.4165 25.5324C11.4379 25.4375 11.4505 25.3333 11.4576 25.225L11.4576 25.225C11.666 22.0386 12.7484 18.8034 14.3191 16.1765C15.8964 13.5385 17.9259 11.5787 19.9846 10.8475C20.4839 10.6703 20.824 10.6431 21.0183 10.673C21.1012 10.6857 21.1404 10.7038 21.1572 10.7155C21.1568 10.7461 21.1445 10.8556 20.9982 11.0495C20.83 11.2727 20.5264 11.5453 20.0528 11.8187C16.9508 13.6095 15.0422 17.466 14.3949 21.9652C13.7449 26.4833 14.3468 31.7552 16.3784 36.5278C16.9456 37.8604 18.3625 40.6173 19.8083 43.2884C21.2528 45.9575 22.7527 48.59 23.4901 49.6669L23.4902 49.6669L25.0444 51.9358L25.6171 52.7719L25.9321 51.8086L27.2399 47.8089C27.8956 45.8036 28.747 43.6168 29.4909 41.9351C29.8634 41.0931 30.2047 40.3872 30.4776 39.8971C30.5619 39.7456 30.6368 39.6202 30.7012 39.5205C30.7159 39.536 30.731 39.5522 30.7466 39.5691C30.9475 39.7868 31.1992 40.0946 31.4492 40.4376L32.2278 41.5057L31.4647 43.4106C30.2466 46.4516 29.1142 50.1975 28.1084 54.5017C27.8612 55.5595 27.6634 56.3625 27.4785 56.9765C27.292 57.596 27.1292 57.9853 26.966 58.2366C26.815 58.4689 26.6713 58.5725 26.5005 58.6335C26.3021 58.7044 26.0324 58.7308 25.5972 58.7308C25.2377 58.7308 25.0451 58.7174 24.8808 58.6591C24.7332 58.6067 24.564 58.5003 24.3185 58.2166C23.798 57.6149 23.0945 56.4152 21.6803 53.9533L21.2467 54.2024M5.39483 21.3356L21.2467 54.2024M48.5273 12.7745L48.8463 12.4081C53.0233 16.045 54.6306 21.5099 53.8521 27.9681C53.0746 34.4177 49.918 41.8997 44.5145 49.6893L44.1258 49.4197L44.5144 49.6893L42.9265 51.9783L42.3279 52.8411L42.0355 51.8325L41.4833 49.9282L41.9636 49.7889L41.4833 49.9281C40.0097 44.8451 39.5118 43.5652 37.6069 39.9328L35.5338 35.9796L35.3795 35.6853L35.5911 35.429L37.2578 33.4111L37.5897 33.6852L37.2578 33.4111C38.2142 32.2532 40.1331 30.6299 41.55 29.7734C42.2229 29.3667 42.8114 28.9568 43.2159 28.6281C43.3632 28.5084 43.4788 28.4053 43.5629 28.3218C43.4953 28.2908 43.3921 28.2678 43.232 28.2655C42.8559 28.26 42.3069 28.385 41.617 28.6656C40.2499 29.2215 38.4923 30.3206 36.7792 31.802L34.3579 33.896L34.025 34.1838L33.6972 33.8902L31.551 31.9679C30.4344 30.9678 28.9621 29.977 27.6268 29.264C26.9596 28.9077 26.3381 28.6269 25.8218 28.4492C25.2787 28.2621 24.9359 28.2197 24.7827 28.2474L24.7826 28.2474C24.5555 28.2886 24.4309 28.3444 24.3715 28.3827C24.3744 28.3875 24.3777 28.3927 24.3815 28.3983C24.4092 28.4394 24.4557 28.4941 24.5289 28.5594C24.6765 28.6909 24.9068 28.8424 25.2321 28.9967C32.0153 32.2149 36.7261 40.7016 40.0435 55.0799C40.2526 55.9863 40.4239 56.6757 40.5892 57.2045C40.7559 57.7377 40.9055 58.0702 41.0559 58.2845C41.1939 58.4809 41.3316 58.5772 41.506 58.6364C41.7043 58.7037 41.9733 58.7308 42.3925 58.7308C42.7475 58.7308 42.9511 58.7176 43.1176 58.6661C43.2633 58.6211 43.4123 58.536 43.6126 58.3214C43.8227 58.0961 44.0718 57.7472 44.4151 57.1925C44.7559 56.6417 45.1742 55.9138 45.7257 54.9449C47.0862 52.5549 50.6233 46.5981 51.9188 44.5155C52.2173 44.0355 52.7229 43.5706 53.3879 43.11C54.0593 42.6451 54.9265 42.1621 55.9858 41.6569C61.9961 38.7899 66.6763 33.0202 67.614 27.4281C67.7806 26.4348 67.8037 25.6829 67.7423 25.1771C67.7114 24.923 67.6618 24.7537 67.6141 24.6528C67.6136 24.6518 67.6131 24.6507 67.6126 24.6497C67.5577 24.6975 67.4823 24.7793 67.3917 24.9119C67.141 25.2785 66.8518 25.9166 66.5807 26.8709C65.1601 31.8718 61.6918 36.4009 57.7399 38.3097C57.2824 38.5307 56.8799 38.7157 56.5785 38.7911C56.4375 38.8263 56.2227 38.8645 56.0121 38.7904C55.8923 38.7483 55.7796 38.6716 55.6956 38.5557C55.6152 38.4448 55.5811 38.3256 55.5679 38.2249C55.5436 38.0381 55.5825 37.842 55.6295 37.673C55.6799 37.492 55.7575 37.2818 55.8556 37.0447C56.0521 36.5704 56.3523 35.9381 56.7449 35.1293C63.8594 20.4705 65.1778 10.4101 61.2798 2.65824C60.9606 2.02345 60.5935 1.63969 60.3344 1.49651C60.255 1.45263 60.2075 1.44273 60.1867 1.44057C60.1794 1.45053 60.1688 1.46837 60.1563 1.49866M48.5273 12.7745L60.1563 1.49866M48.5273 12.7745L48.8463 12.408C48.1365 11.79 47.6404 11.2754 47.3393 10.8818C47.2347 10.7451 47.1593 10.6304 47.1075 10.5372C47.1239 10.5397 47.1412 10.5427 47.1595 10.5461C47.5171 10.6124 48.0774 10.8135 48.8513 11.1969C50.8532 12.1889 52.7806 14.2535 54.2154 16.7635C55.6475 19.2689 56.552 22.1548 56.5652 24.733C56.5663 24.951 56.5755 25.1445 56.5968 25.305C56.6151 25.4431 56.6509 25.6373 56.7558 25.7929C56.8155 25.8814 56.9261 25.9989 57.1053 26.0447C57.2876 26.0914 57.4444 26.0394 57.5441 25.9843C57.7144 25.8902 57.834 25.7249 57.9106 25.6073C58.0848 25.3396 58.2866 24.9089 58.519 24.3415C58.7553 23.7646 59.0355 23.0155 59.3636 22.0902C61.2765 16.6957 61.6089 10.6535 60.3835 4.00121C60.2723 3.39737 60.1954 2.79284 60.1609 2.309C60.1436 2.06647 60.1375 1.86162 60.1417 1.70613C60.1449 1.58761 60.1539 1.52641 60.157 1.50462C60.1586 1.49406 60.1588 1.49275 60.1563 1.49866M48.5273 12.7745L60.1563 1.49866M10.4367 25.3287C10.4367 25.3287 10.4369 25.3278 10.4376 25.3261C10.437 25.3279 10.4367 25.3287 10.4367 25.3287ZM21.1681 10.7272C21.1673 10.7276 21.1643 10.7251 21.1611 10.7185C21.1673 10.7235 21.1689 10.7268 21.1681 10.7272ZM0.597117 24.6415C0.597116 24.6415 0.597767 24.6418 0.599068 24.6426C0.597767 24.642 0.597117 24.6416 0.597117 24.6415ZM60.1972 1.42948C60.1973 1.42976 60.1959 1.43129 60.1926 1.43321C60.1955 1.43016 60.1971 1.4292 60.1972 1.42948Z" fill="white"/>
<path d="M6.72692 24.0561L6.72696 24.0562C6.78328 24.3076 7.03273 24.9959 7.42415 25.9794C7.80776 26.9432 8.30971 28.147 8.84765 29.3988C9.92565 31.9074 11.1383 34.5861 11.8268 35.9062C12.1658 36.5559 12.432 37.0702 12.5907 37.4434C12.6689 37.6273 12.7351 37.8086 12.7645 37.9716C12.7882 38.1026 12.8228 38.4013 12.5993 38.6306C12.3739 38.8619 12.0727 38.8323 11.9406 38.8104C11.7773 38.7833 11.5955 38.7194 11.4117 38.6437C11.0386 38.4899 10.5238 38.2302 9.87383 37.8998M6.72692 24.0561L9.87383 37.8998M6.72692 24.0561C6.60948 23.5326 6.20759 22.2405 5.83667 21.1809L5.39483 21.3356M6.72692 24.0561L5.39483 21.3356M9.87383 37.8998C5.945 35.9026 2.89431 31.8226 1.56758 26.8892L2.05042 26.7593M9.87383 37.8998L2.05042 26.7593M2.05042 26.7593L1.56758 26.8892C1.34282 26.0534 1.11202 25.4494 0.90381 25.063C0.842175 24.9486 0.78616 24.8601 0.737445 24.7934C0.728066 24.8221 0.718428 24.8545 0.708761 24.8911C0.616563 25.2396 0.559251 25.8137 0.57718 26.6379C0.699469 32.2589 5.48648 38.41 12.8094 42.0223C13.0266 42.1295 13.2312 42.2257 13.424 42.3164C13.8426 42.5134 14.206 42.6844 14.5242 42.8846C15.0269 43.2009 15.4449 43.5991 15.9592 44.2959C16.7922 45.4246 17.9412 47.4301 20.1984 51.3695C20.6466 52.1517 21.1385 53.0103 21.6802 53.9533L21.2467 54.2024M2.05042 26.7593L21.2467 54.2024M5.39483 21.3356L5.83666 21.1809C5.01347 18.8296 4.71199 15.3556 4.90247 11.8603C5.09293 8.36531 5.77072 4.93209 6.84669 2.66004C7.14878 2.02222 7.45483 1.64194 7.69818 1.45094C7.8184 1.35659 7.90804 1.32028 7.9616 1.30872C8.00863 1.29858 8.02546 1.30707 8.02968 1.3092L8.02989 1.3093C8.04186 1.31532 8.16343 1.39754 8.20205 1.76711C8.23872 2.11792 8.18467 2.63717 7.96069 3.31299L7.96068 3.31302C7.40116 5.00156 7.16322 8.02746 7.19926 11.1409C7.23547 14.2679 7.54955 17.576 8.13957 19.854C8.70288 22.0289 9.26977 23.7931 9.71577 24.8367C9.82768 25.0986 9.93607 25.3248 10.0392 25.5049C10.1324 25.6677 10.2533 25.8514 10.406 25.9688C10.4839 26.0287 10.6344 26.1212 10.8361 26.108C11.0633 26.093 11.212 25.9561 11.29 25.8413C11.3616 25.7359 11.3966 25.6208 11.4165 25.5324C11.4379 25.4375 11.4505 25.3333 11.4576 25.225L11.4576 25.225C11.666 22.0386 12.7484 18.8034 14.3191 16.1765C15.8964 13.5385 17.9259 11.5787 19.9846 10.8475C20.4839 10.6703 20.824 10.6431 21.0183 10.673C21.1012 10.6857 21.1404 10.7038 21.1572 10.7155C21.1568 10.7461 21.1445 10.8556 20.9982 11.0495C20.83 11.2727 20.5264 11.5453 20.0528 11.8187C16.9508 13.6095 15.0422 17.466 14.3949 21.9652C13.7449 26.4833 14.3468 31.7552 16.3784 36.5278C16.9456 37.8604 18.3625 40.6173 19.8083 43.2884C21.2528 45.9575 22.7527 48.59 23.4901 49.6669L23.4902 49.6669L25.0444 51.9358L25.6171 52.7719L25.9321 51.8086L27.2399 47.8089C27.8956 45.8036 28.747 43.6168 29.4909 41.9351C29.8634 41.0931 30.2047 40.3872 30.4776 39.8971C30.5619 39.7456 30.6368 39.6202 30.7012 39.5205C30.7159 39.536 30.731 39.5522 30.7466 39.5691C30.9475 39.7868 31.1992 40.0946 31.4492 40.4376L32.2278 41.5057L31.4647 43.4106C30.2466 46.4516 29.1142 50.1975 28.1084 54.5017C27.8612 55.5595 27.6634 56.3625 27.4785 56.9765C27.292 57.596 27.1292 57.9853 26.966 58.2366C26.815 58.4689 26.6713 58.5725 26.5005 58.6335C26.3021 58.7044 26.0324 58.7308 25.5972 58.7308C25.2377 58.7308 25.0451 58.7174 24.8808 58.6591C24.7332 58.6067 24.564 58.5003 24.3185 58.2166C23.798 57.6149 23.0945 56.4152 21.6803 53.9533L21.2467 54.2024M5.39483 21.3356L21.2467 54.2024M48.5273 12.7745L48.8463 12.4081C53.0233 16.045 54.6306 21.5099 53.8521 27.9681C53.0746 34.4177 49.918 41.8997 44.5145 49.6893L44.1258 49.4197L44.5144 49.6893L42.9265 51.9783L42.3279 52.8411L42.0355 51.8325L41.4833 49.9282L41.9636 49.7889L41.4833 49.9281C40.0097 44.8451 39.5118 43.5652 37.6069 39.9328L35.5338 35.9796L35.3795 35.6853L35.5911 35.429L37.2578 33.4111L37.5897 33.6852L37.2578 33.4111C38.2142 32.2532 40.1331 30.6299 41.55 29.7734C42.2229 29.3667 42.8114 28.9568 43.2159 28.6281C43.3632 28.5084 43.4788 28.4053 43.5629 28.3218C43.4953 28.2908 43.3921 28.2678 43.232 28.2655C42.8559 28.26 42.3069 28.385 41.617 28.6656C40.2499 29.2215 38.4923 30.3206 36.7792 31.802L34.3579 33.896L34.025 34.1838L33.6972 33.8902L31.551 31.9679C30.4344 30.9678 28.9621 29.977 27.6268 29.264C26.9596 28.9077 26.3381 28.6269 25.8218 28.4492C25.2787 28.2621 24.9359 28.2197 24.7827 28.2474L24.7826 28.2474C24.5555 28.2886 24.4309 28.3444 24.3715 28.3827C24.3744 28.3875 24.3777 28.3927 24.3815 28.3983C24.4092 28.4394 24.4557 28.4941 24.5289 28.5594C24.6765 28.6909 24.9068 28.8424 25.2321 28.9967C32.0153 32.2149 36.7261 40.7016 40.0435 55.0799C40.2526 55.9863 40.4239 56.6757 40.5892 57.2045C40.7559 57.7377 40.9055 58.0702 41.0559 58.2845C41.1939 58.4809 41.3316 58.5772 41.506 58.6364C41.7043 58.7037 41.9733 58.7308 42.3925 58.7308C42.7475 58.7308 42.9511 58.7176 43.1176 58.6661C43.2633 58.6211 43.4123 58.536 43.6126 58.3214C43.8227 58.0961 44.0718 57.7472 44.4151 57.1925C44.7559 56.6417 45.1742 55.9138 45.7257 54.9449C47.0862 52.5549 50.6233 46.5981 51.9188 44.5155C52.2173 44.0355 52.7229 43.5706 53.3879 43.11C54.0593 42.6451 54.9265 42.1621 55.9858 41.6569C61.9961 38.7899 66.6763 33.0202 67.614 27.4281C67.7806 26.4348 67.8037 25.6829 67.7423 25.1771C67.7114 24.923 67.6618 24.7537 67.6141 24.6528C67.6136 24.6518 67.6131 24.6507 67.6126 24.6497C67.5577 24.6975 67.4823 24.7793 67.3917 24.9119C67.141 25.2785 66.8518 25.9166 66.5807 26.8709C65.1601 31.8718 61.6918 36.4009 57.7399 38.3097C57.2824 38.5307 56.8799 38.7157 56.5785 38.7911C56.4375 38.8263 56.2227 38.8645 56.0121 38.7904C55.8923 38.7483 55.7796 38.6716 55.6956 38.5557C55.6152 38.4448 55.5811 38.3256 55.5679 38.2249C55.5436 38.0381 55.5825 37.842 55.6295 37.673C55.6799 37.492 55.7575 37.2818 55.8556 37.0447C56.0521 36.5704 56.3523 35.9381 56.7449 35.1293C63.8594 20.4705 65.1778 10.4101 61.2798 2.65824C60.9606 2.02345 60.5935 1.63969 60.3344 1.49651C60.255 1.45263 60.2075 1.44273 60.1867 1.44057C60.1794 1.45053 60.1688 1.46837 60.1563 1.49866M48.5273 12.7745L60.1563 1.49866M48.5273 12.7745L48.8463 12.408C48.1365 11.79 47.6404 11.2754 47.3393 10.8818C47.2347 10.7451 47.1593 10.6304 47.1075 10.5372C47.1239 10.5397 47.1412 10.5427 47.1595 10.5461C47.5171 10.6124 48.0774 10.8135 48.8513 11.1969C50.8532 12.1889 52.7806 14.2535 54.2154 16.7635C55.6475 19.2689 56.552 22.1548 56.5652 24.733C56.5663 24.951 56.5755 25.1445 56.5968 25.305C56.6151 25.4431 56.6509 25.6373 56.7558 25.7929C56.8155 25.8814 56.9261 25.9989 57.1053 26.0447C57.2876 26.0914 57.4444 26.0394 57.5441 25.9843C57.7144 25.8902 57.834 25.7249 57.9106 25.6073C58.0848 25.3396 58.2866 24.9089 58.519 24.3415C58.7553 23.7646 59.0355 23.0155 59.3636 22.0902C61.2765 16.6957 61.6089 10.6535 60.3835 4.00121C60.2723 3.39737 60.1954 2.79284 60.1609 2.309C60.1436 2.06647 60.1375 1.86162 60.1417 1.70613C60.1449 1.58761 60.1539 1.52641 60.157 1.50462C60.1586 1.49406 60.1588 1.49275 60.1563 1.49866M48.5273 12.7745L60.1563 1.49866M10.4367 25.3287C10.4367 25.3287 10.4369 25.3278 10.4376 25.3261C10.437 25.3279 10.4367 25.3287 10.4367 25.3287ZM21.1681 10.7272C21.1673 10.7276 21.1643 10.7251 21.1611 10.7185C21.1673 10.7235 21.1689 10.7268 21.1681 10.7272ZM0.597117 24.6415C0.597116 24.6415 0.597767 24.6418 0.599068 24.6426C0.597767 24.642 0.597117 24.6416 0.597117 24.6415ZM60.1972 1.42948C60.1973 1.42976 60.1959 1.43129 60.1926 1.43321C60.1955 1.43016 60.1971 1.4292 60.1972 1.42948Z" stroke="black"/>
<path d="M6.72692 24.0561L6.72696 24.0562C6.78328 24.3076 7.03273 24.9959 7.42415 25.9794C7.80776 26.9432 8.30971 28.147 8.84765 29.3988C9.92565 31.9074 11.1383 34.5861 11.8268 35.9062C12.1658 36.5559 12.432 37.0702 12.5907 37.4434C12.6689 37.6273 12.7351 37.8086 12.7645 37.9716C12.7882 38.1026 12.8228 38.4013 12.5993 38.6306C12.3739 38.8619 12.0727 38.8323 11.9406 38.8104C11.7773 38.7833 11.5955 38.7194 11.4117 38.6437C11.0386 38.4899 10.5238 38.2302 9.87383 37.8998M6.72692 24.0561L9.87383 37.8998M6.72692 24.0561C6.60948 23.5326 6.20759 22.2405 5.83667 21.1809L5.39483 21.3356M6.72692 24.0561L5.39483 21.3356M9.87383 37.8998C5.945 35.9026 2.89431 31.8226 1.56758 26.8892L2.05042 26.7593M9.87383 37.8998L2.05042 26.7593M2.05042 26.7593L1.56758 26.8892C1.34282 26.0534 1.11202 25.4494 0.90381 25.063C0.842175 24.9486 0.78616 24.8601 0.737445 24.7934C0.728066 24.8221 0.718428 24.8545 0.708761 24.8911C0.616563 25.2396 0.559251 25.8137 0.57718 26.6379C0.699469 32.2589 5.48648 38.41 12.8094 42.0223C13.0266 42.1295 13.2312 42.2257 13.424 42.3164C13.8426 42.5134 14.206 42.6844 14.5242 42.8846C15.0269 43.2009 15.4449 43.5991 15.9592 44.2959C16.7922 45.4246 17.9412 47.4301 20.1984 51.3695C20.6466 52.1517 21.1385 53.0103 21.6802 53.9533L21.2467 54.2024M2.05042 26.7593L21.2467 54.2024M5.39483 21.3356L5.83666 21.1809C5.01347 18.8296 4.71199 15.3556 4.90247 11.8603C5.09293 8.36531 5.77072 4.93209 6.84669 2.66004C7.14878 2.02222 7.45483 1.64194 7.69818 1.45094C7.8184 1.35659 7.90804 1.32028 7.9616 1.30872C8.00863 1.29858 8.02546 1.30707 8.02968 1.3092L8.02989 1.3093C8.04186 1.31532 8.16343 1.39754 8.20205 1.76711C8.23872 2.11792 8.18467 2.63717 7.96069 3.31299L7.96068 3.31302C7.40116 5.00156 7.16322 8.02746 7.19926 11.1409C7.23547 14.2679 7.54955 17.576 8.13957 19.854C8.70288 22.0289 9.26977 23.7931 9.71577 24.8367C9.82768 25.0986 9.93607 25.3248 10.0392 25.5049C10.1324 25.6677 10.2533 25.8514 10.406 25.9688C10.4839 26.0287 10.6344 26.1212 10.8361 26.108C11.0633 26.093 11.212 25.9561 11.29 25.8413C11.3616 25.7359 11.3966 25.6208 11.4165 25.5324C11.4379 25.4375 11.4505 25.3333 11.4576 25.225L11.4576 25.225C11.666 22.0386 12.7484 18.8034 14.3191 16.1765C15.8964 13.5385 17.9259 11.5787 19.9846 10.8475C20.4839 10.6703 20.824 10.6431 21.0183 10.673C21.1012 10.6857 21.1404 10.7038 21.1572 10.7155C21.1568 10.7461 21.1445 10.8556 20.9982 11.0495C20.83 11.2727 20.5264 11.5453 20.0528 11.8187C16.9508 13.6095 15.0422 17.466 14.3949 21.9652C13.7449 26.4833 14.3468 31.7552 16.3784 36.5278C16.9456 37.8604 18.3625 40.6173 19.8083 43.2884C21.2528 45.9575 22.7527 48.59 23.4901 49.6669L23.4902 49.6669L25.0444 51.9358L25.6171 52.7719L25.9321 51.8086L27.2399 47.8089C27.8956 45.8036 28.747 43.6168 29.4909 41.9351C29.8634 41.0931 30.2047 40.3872 30.4776 39.8971C30.5619 39.7456 30.6368 39.6202 30.7012 39.5205C30.7159 39.536 30.731 39.5522 30.7466 39.5691C30.9475 39.7868 31.1992 40.0946 31.4492 40.4376L32.2278 41.5057L31.4647 43.4106C30.2466 46.4516 29.1142 50.1975 28.1084 54.5017C27.8612 55.5595 27.6634 56.3625 27.4785 56.9765C27.292 57.596 27.1292 57.9853 26.966 58.2366C26.815 58.4689 26.6713 58.5725 26.5005 58.6335C26.3021 58.7044 26.0324 58.7308 25.5972 58.7308C25.2377 58.7308 25.0451 58.7174 24.8808 58.6591C24.7332 58.6067 24.564 58.5003 24.3185 58.2166C23.798 57.6149 23.0945 56.4152 21.6803 53.9533L21.2467 54.2024M5.39483 21.3356L21.2467 54.2024M48.5273 12.7745L48.8463 12.4081C53.0233 16.045 54.6306 21.5099 53.8521 27.9681C53.0746 34.4177 49.918 41.8997 44.5145 49.6893L44.1258 49.4197L44.5144 49.6893L42.9265 51.9783L42.3279 52.8411L42.0355 51.8325L41.4833 49.9282L41.9636 49.7889L41.4833 49.9281C40.0097 44.8451 39.5118 43.5652 37.6069 39.9328L35.5338 35.9796L35.3795 35.6853L35.5911 35.429L37.2578 33.4111L37.5897 33.6852L37.2578 33.4111C38.2142 32.2532 40.1331 30.6299 41.55 29.7734C42.2229 29.3667 42.8114 28.9568 43.2159 28.6281C43.3632 28.5084 43.4788 28.4053 43.5629 28.3218C43.4953 28.2908 43.3921 28.2678 43.232 28.2655C42.8559 28.26 42.3069 28.385 41.617 28.6656C40.2499 29.2215 38.4923 30.3206 36.7792 31.802L34.3579 33.896L34.025 34.1838L33.6972 33.8902L31.551 31.9679C30.4344 30.9678 28.9621 29.977 27.6268 29.264C26.9596 28.9077 26.3381 28.6269 25.8218 28.4492C25.2787 28.2621 24.9359 28.2197 24.7827 28.2474L24.7826 28.2474C24.5555 28.2886 24.4309 28.3444 24.3715 28.3827C24.3744 28.3875 24.3777 28.3927 24.3815 28.3983C24.4092 28.4394 24.4557 28.4941 24.5289 28.5594C24.6765 28.6909 24.9068 28.8424 25.2321 28.9967C32.0153 32.2149 36.7261 40.7016 40.0435 55.0799C40.2526 55.9863 40.4239 56.6757 40.5892 57.2045C40.7559 57.7377 40.9055 58.0702 41.0559 58.2845C41.1939 58.4809 41.3316 58.5772 41.506 58.6364C41.7043 58.7037 41.9733 58.7308 42.3925 58.7308C42.7475 58.7308 42.9511 58.7176 43.1176 58.6661C43.2633 58.6211 43.4123 58.536 43.6126 58.3214C43.8227 58.0961 44.0718 57.7472 44.4151 57.1925C44.7559 56.6417 45.1742 55.9138 45.7257 54.9449C47.0862 52.5549 50.6233 46.5981 51.9188 44.5155C52.2173 44.0355 52.7229 43.5706 53.3879 43.11C54.0593 42.6451 54.9265 42.1621 55.9858 41.6569C61.9961 38.7899 66.6763 33.0202 67.614 27.4281C67.7806 26.4348 67.8037 25.6829 67.7423 25.1771C67.7114 24.923 67.6618 24.7537 67.6141 24.6528C67.6136 24.6518 67.6131 24.6507 67.6126 24.6497C67.5577 24.6975 67.4823 24.7793 67.3917 24.9119C67.141 25.2785 66.8518 25.9166 66.5807 26.8709C65.1601 31.8718 61.6918 36.4009 57.7399 38.3097C57.2824 38.5307 56.8799 38.7157 56.5785 38.7911C56.4375 38.8263 56.2227 38.8645 56.0121 38.7904C55.8923 38.7483 55.7796 38.6716 55.6956 38.5557C55.6152 38.4448 55.5811 38.3256 55.5679 38.2249C55.5436 38.0381 55.5825 37.842 55.6295 37.673C55.6799 37.492 55.7575 37.2818 55.8556 37.0447C56.0521 36.5704 56.3523 35.9381 56.7449 35.1293C63.8594 20.4705 65.1778 10.4101 61.2798 2.65824C60.9606 2.02345 60.5935 1.63969 60.3344 1.49651C60.255 1.45263 60.2075 1.44273 60.1867 1.44057C60.1794 1.45053 60.1688 1.46837 60.1563 1.49866M48.5273 12.7745L60.1563 1.49866M48.5273 12.7745L48.8463 12.408C48.1365 11.79 47.6404 11.2754 47.3393 10.8818C47.2347 10.7451 47.1593 10.6304 47.1075 10.5372C47.1239 10.5397 47.1412 10.5427 47.1595 10.5461C47.5171 10.6124 48.0774 10.8135 48.8513 11.1969C50.8532 12.1889 52.7806 14.2535 54.2154 16.7635C55.6475 19.2689 56.552 22.1548 56.5652 24.733C56.5663 24.951 56.5755 25.1445 56.5968 25.305C56.6151 25.4431 56.6509 25.6373 56.7558 25.7929C56.8155 25.8814 56.9261 25.9989 57.1053 26.0447C57.2876 26.0914 57.4444 26.0394 57.5441 25.9843C57.7144 25.8902 57.834 25.7249 57.9106 25.6073C58.0848 25.3396 58.2866 24.9089 58.519 24.3415C58.7553 23.7646 59.0355 23.0155 59.3636 22.0902C61.2765 16.6957 61.6089 10.6535 60.3835 4.00121C60.2723 3.39737 60.1954 2.79284 60.1609 2.309C60.1436 2.06647 60.1375 1.86162 60.1417 1.70613C60.1449 1.58761 60.1539 1.52641 60.157 1.50462C60.1586 1.49406 60.1588 1.49275 60.1563 1.49866M48.5273 12.7745L60.1563 1.49866M10.4367 25.3287C10.4367 25.3287 10.4369 25.3278 10.4376 25.3261C10.437 25.3279 10.4367 25.3287 10.4367 25.3287ZM21.1681 10.7272C21.1673 10.7276 21.1643 10.7251 21.1611 10.7185C21.1673 10.7235 21.1689 10.7268 21.1681 10.7272ZM0.597117 24.6415C0.597116 24.6415 0.597767 24.6418 0.599068 24.6426C0.597767 24.642 0.597117 24.6416 0.597117 24.6415ZM60.1972 1.42948C60.1973 1.42976 60.1959 1.43129 60.1926 1.43321C60.1955 1.43016 60.1971 1.4292 60.1972 1.42948Z" stroke="url(#paint0_linear)"/>
<defs>
<linearGradient id="paint0_linear" x1="34.1736" y1="0.803885" x2="34.1736" y2="59.2308" gradientUnits="userSpaceOnUse">
<stop stop-color="white"/>
<stop offset="1" stop-color="white" stop-opacity="0"/>
</linearGradient>
</defs>
</svg>
